<svg width="17" height="11" viewBox="0 0 17 11" fill="none" xmlns="http://www.w3.org/2000/svg">
<path fill-rule="evenodd" clip-rule="evenodd" d="M11.1464 10.1464C10.9512 10.3417 10.9512 10.6583 11.1464 10.8536C11.3417 11.0488 11.6583 11.0488 11.8536 10.8536L16.8536 5.85355C17.0488 5.65829 17.0488 5.34171 16.8536 5.14645L11.8536 0.146447C11.6583 -0.0488153 11.3417 -0.0488152 11.1464 0.146447C10.9512 0.34171 10.9512 0.658291 11.1464 0.853554L15.2929 5L0.499999 5C0.223857 5 -5.04966e-07 5.22386 -4.80825e-07 5.5C-4.56684e-07 5.77614 0.223857 6 0.5 6L15.2929 6L11.1464 10.1464Z" fill="black"/>
</svg>
